<svg width="901" height="415" viewBox="0 0 901 415" fill="none" xmlns="http://www.w3.org/2000/svg">
<path fill-rule="evenodd" clip-rule="evenodd" d="M173.399 168.03H101.823L122.344 152.646L82.5841 98.9814L40.8223 152.62L63.4344 168.03H0L21.3089 152.055L72.5285 85.8681L20.8324 16.2011L2.33538 2.33436H72.9659L52.4471 17.7168L90.5679 68.8213L130.462 17.7439L107.851 2.33436H171.285L149.976 18.3097L100.394 82.1614L153.253 152.994L173.399 168.03ZM152.435 153.812L98.9543 82.1476L149.165 17.4858L167.848 3.47964H111.565L132.117 17.4858L90.547 70.7092L50.8455 17.4858L69.5286 3.47964H5.77274L21.6533 15.3849L73.9658 85.8826L22.1204 152.879L3.43736 166.885H59.72L39.1686 152.879L82.6067 97.0875L123.943 152.879L105.26 166.885H169.95L152.435 153.812ZM347.44 3.47964L328.757 17.4858L268.505 127.201C264.612 133.737 260.798 139.573 257.061 144.708C253.325 149.844 249.355 154.202 245.151 157.781C240.947 161.36 236.276 164.161 231.139 166.185C226.283 167.95 220.593 168.95 214.068 169.186C213.689 169.2 213.307 169.211 212.923 169.219V143.541C217.282 142.763 221.408 141.907 225.3 140.974C229.348 140.04 233.24 138.639 236.977 136.772C240.714 134.749 244.45 132.103 248.187 128.835C251.923 125.411 255.738 120.898 259.63 115.296L195.641 14.918L180.461 3.47964H243.75L225.067 17.4858L271.307 94.0528L312.41 17.4858V17.2524L284.619 3.47964H347.44ZM310.94 17.8021L284.11 4.50574L284.619 2.33436H350.878L329.643 18.2537L269.499 127.769L269.489 127.787C265.582 134.347 261.749 140.213 257.988 145.382C254.206 150.58 250.176 155.007 245.894 158.653C241.594 162.314 236.814 165.181 231.559 167.25L231.544 167.256L231.53 167.261C226.247 169.181 220.046 170.207 212.948 170.364L211.777 170.39V142.582L212.721 142.414C217.061 141.639 221.164 140.788 225.033 139.86L225.042 139.857C228.996 138.946 232.797 137.579 236.448 135.756C240.09 133.782 243.748 131.194 247.422 127.982C250.938 124.759 254.55 120.526 258.253 115.266L194.786 15.708L177.038 2.33436H247.187L226.583 17.7806L271.249 91.7397L310.94 17.8021ZM475.795 17.4858V155.213H494.478V213.572L471.591 166.885H358.559L335.672 213.572V155.213H351.786C357.703 149.299 362.685 141.207 366.733 130.936C370.781 120.665 374.05 109.304 376.541 96.8541C379.188 84.2485 381.056 71.0983 382.146 57.4034C383.392 43.5528 384.17 30.1692 384.482 17.2524L366.032 3.47964H494.478L475.795 17.4858ZM383.322 17.8158L362.583 2.33436H497.915L476.941 18.0584V154.068H495.624V213.572L493.449 214.076L470.877 168.03H359.274L336.701 214.076L334.527 213.572V154.068H351.308C356.94 148.324 361.736 140.49 365.667 130.516C369.686 120.317 372.938 109.022 375.418 96.6295L375.42 96.6188C378.056 84.064 379.918 70.9621 381.004 57.3126L381.005 57.3008C382.23 43.6846 383.002 30.523 383.322 17.8158ZM451.295 154.068V16.2967H399.873C399.853 30.3843 399.463 44.0306 398.704 57.2357C397.924 70.8011 396.676 83.5927 394.958 95.6095C393.395 107.637 391.128 118.739 388.153 128.915C385.531 138.23 382.296 146.617 378.443 154.068H451.295ZM452.441 155.213H376.541C376.746 154.834 376.949 154.452 377.151 154.068C381.085 146.565 384.385 138.076 387.051 128.601C390.009 118.486 392.266 107.437 393.823 95.4535C395.536 83.4704 396.781 70.7092 397.56 57.1699C398.338 43.6306 398.728 29.6245 398.728 15.1514H452.441V155.213ZM532.461 148.345L532.453 148.337C524.862 141.065 518.784 132.223 514.214 121.826L514.211 121.82C509.625 111.228 507.345 99.2417 507.345 85.8826C507.345 72.5235 509.625 60.5374 514.211 49.9454L514.215 49.938C518.939 39.2347 525.093 30.2356 532.686 22.9617C540.422 15.5452 549.266 9.86193 559.213 5.91665L559.218 5.91438C569.316 1.9717 579.811 0 590.696 0C601.267 0 611.525 1.89323 621.464 5.67749C631.41 9.4648 640.179 14.9909 647.762 22.2531C655.516 29.3728 661.673 38.2203 666.244 48.7744C670.833 59.214 673.113 71.1241 673.113 84.482C673.113 97.8445 670.753 109.909 666.011 120.655C661.44 131.21 655.284 140.209 647.538 147.636C639.954 154.901 631.108 160.505 621.011 164.448C611.066 168.393 600.646 170.365 589.762 170.365C579.19 170.365 568.932 168.471 558.994 164.687C549.051 160.901 540.208 155.456 532.47 148.353L532.461 148.345ZM646.978 23.0883C639.505 15.9296 630.864 10.4827 621.056 6.74775C611.247 3.01277 601.127 1.14529 590.696 1.14529C579.953 1.14529 569.599 3.09058 559.635 6.98118C549.827 10.8718 541.108 16.4743 533.479 23.7886C526.006 30.9473 519.934 39.8179 515.263 50.4003C510.748 60.8271 508.49 72.6545 508.49 85.8826C508.49 99.1106 510.748 110.938 515.263 121.365C519.778 131.636 525.772 140.351 533.245 147.51C540.874 154.513 549.593 159.882 559.402 163.617C569.21 167.352 579.33 169.219 589.762 169.219C600.504 169.219 610.78 167.274 620.589 163.383C630.553 159.493 639.272 153.968 646.745 146.809C654.374 139.495 660.446 130.624 664.961 120.198C669.631 109.615 671.967 97.71 671.967 84.482C671.967 71.2539 669.709 59.5043 665.194 49.2331C660.679 38.8063 654.607 30.0914 646.978 23.0883ZM631.585 138.882L631.588 138.878C636.004 133.095 639.37 126.149 641.672 118.018C643.974 109.889 645.132 100.737 645.132 90.5513C645.132 78.5087 643.587 67.8167 640.518 58.4605L640.516 58.4553C637.441 48.9245 633.146 40.8902 627.65 34.3281L627.64 34.316C622.293 27.7495 615.964 22.7222 608.65 19.219L608.642 19.2149C601.486 15.7147 593.796 13.9624 585.558 13.9624C577.771 13.9624 570.784 15.4876 564.575 18.5152C558.359 21.5457 553.048 25.941 548.635 31.7199C544.378 37.3447 541.088 44.2119 538.785 52.3462C536.483 60.4751 535.325 69.6274 535.325 79.8132C535.325 91.8554 536.87 102.627 539.941 112.143C543.016 121.518 547.234 129.477 552.578 136.042C558.085 142.616 564.419 147.645 571.578 151.148C578.893 154.651 586.663 156.402 594.899 156.402C602.686 156.402 609.673 154.877 615.883 151.849C622.101 148.817 627.333 144.499 631.585 138.882ZM571.078 152.178C563.761 148.599 557.3 143.463 551.695 136.772C546.246 130.08 541.964 121.987 538.85 112.494C535.736 102.846 534.18 91.9519 534.18 79.8132C534.18 69.5421 535.347 60.2824 537.683 52.0344C540.018 43.7863 543.365 36.7832 547.725 31.0251C552.24 25.1114 557.689 20.5983 564.072 17.4858C570.456 14.3733 577.617 12.8171 585.558 12.8171C593.965 12.8171 601.828 14.6068 609.145 18.1861C616.618 21.7655 623.08 26.9011 628.529 33.5929C634.134 40.2847 638.493 48.455 641.607 58.1037C644.721 67.5967 646.278 78.4126 646.278 90.5513C646.278 100.822 645.11 110.082 642.775 118.33C640.439 126.578 637.014 133.659 632.499 139.573C628.14 145.331 622.768 149.766 616.385 152.879C610.001 155.991 602.84 157.547 594.899 157.547C586.492 157.547 578.552 155.758 571.078 152.178ZM768.167 82.4732L767.715 83.2124C756.658 101.27 747.31 116.142 739.672 127.827C732.169 139.39 724.872 148.496 717.776 155.117L717.766 155.126C710.639 161.617 702.922 165.921 694.619 167.996C686.348 170.063 676.006 170.444 663.632 169.192L662.602 169.087V166.078L663.362 165.806C671.988 162.727 679.432 158.81 685.71 154.066L685.72 154.058C692.17 149.299 698.25 143.379 703.957 136.287C709.674 129.183 715.403 120.751 721.14 110.987C726.793 101.213 733.271 89.9396 740.575 77.166L672.603 2.33436H735.59L708.308 17.7701L768.167 82.4732ZM706.485 17.4858L731.24 3.47964H675.191L741.983 77.012C734.509 90.0844 727.892 101.601 722.132 111.561C716.371 121.365 710.611 129.846 704.85 137.005C699.089 144.164 692.94 150.155 686.401 154.98C680.017 159.804 672.466 163.772 663.747 166.885V168.052C676.047 169.297 686.245 168.908 694.341 166.885C702.437 164.862 709.988 160.66 716.994 154.279C724 147.743 731.24 138.717 738.713 127.201C746.342 115.529 755.683 100.667 766.738 82.6145L706.485 17.4858ZM792.193 17.4858V152.879L810.876 166.885H752.492L771.175 152.879V17.4858L752.492 3.47964H810.876L792.193 17.4858ZM770.029 18.0584L749.054 2.33436H814.314L793.339 18.0585V152.306L814.314 168.03H749.054L770.029 152.306V18.0584ZM821.619 77.012C829.092 90.0844 835.709 101.601 841.47 111.561C847.23 121.365 852.991 129.846 858.752 137.005C864.512 144.164 870.584 150.155 876.967 154.98C883.507 159.804 891.135 163.772 899.854 166.885V168.052C887.555 169.297 877.357 168.908 869.261 166.885C861.165 164.862 853.614 160.66 846.608 154.279C839.601 147.743 832.284 138.717 824.655 127.201C817.182 115.529 807.918 100.667 796.864 82.6145L857.117 17.4858L832.362 3.47964H888.411L821.619 77.012ZM855.293 17.7701L795.434 82.4732L795.887 83.2124C806.943 101.268 816.211 116.137 823.69 127.818L823.695 127.826L823.7 127.833C831.358 139.394 838.732 148.499 845.826 155.117L845.836 155.126C852.963 161.617 860.679 165.921 868.983 167.996C877.253 170.063 887.596 170.444 899.97 169.192L901 169.087V166.078L900.24 165.806C891.615 162.727 884.09 158.81 877.654 154.063C871.358 149.304 865.353 143.382 859.644 136.287C853.927 129.183 848.199 120.751 842.462 110.987C836.809 101.213 830.33 89.9396 823.027 77.166L890.999 2.33436H828.012L855.293 17.7701ZM276.303 262.577V397.97L294.986 411.976H234.266L252.949 397.97V331.441H159.534V397.97L178.217 411.976H117.497L136.18 397.97V262.577L117.497 248.571H178.217L159.534 262.577V319.769H252.949V262.577L234.266 248.571H294.986L276.303 262.577ZM251.803 263.15L230.828 247.426H298.423L277.448 263.15V397.397L298.423 413.121H230.828L251.803 397.397V332.586H160.679V397.397L181.654 413.121H114.06L135.034 397.397V263.15L114.06 247.426H181.654L160.679 263.15V318.624H251.803V263.15ZM481.834 262.577V397.97L500.517 411.976H439.797L458.48 397.97V273.082L365.065 411.976H323.028L341.711 397.97V262.577L323.028 248.571H383.748L365.065 262.577V387.465L458.48 248.571H500.517L481.834 262.577ZM366.211 383.709L457.87 247.426H503.955L482.98 263.15V397.397L503.955 413.121H436.36L457.335 397.397V276.838L365.676 413.121H319.591L340.566 397.397V263.15L319.591 247.426H387.186L366.211 263.15V383.709ZM570.597 262.577V397.97L589.28 411.976H528.56L547.243 397.97V262.577L528.56 248.571H589.28L570.597 262.577ZM546.097 263.15L525.123 247.426H592.717L571.743 263.15V397.397L592.717 413.121H525.123L546.097 397.397V263.15ZM609.131 322.103C618.316 335.176 626.257 346.692 632.951 356.652C639.802 366.456 646.263 374.938 652.335 382.096C658.563 389.255 664.946 395.247 671.485 400.071C678.024 404.895 685.653 408.864 694.372 411.976V413.143C682.072 414.388 671.719 413.999 663.311 411.976C654.904 409.953 646.886 405.751 639.257 399.371C631.784 392.834 623.843 383.808 615.436 372.292C607.029 360.62 596.675 345.758 584.375 327.706L650 262.577L625.245 248.571H682.928L609.131 322.103ZM648.119 262.829L582.892 327.564L583.428 328.35C595.731 346.407 606.091 361.278 614.506 372.961L614.511 372.967C622.948 384.525 630.944 393.622 638.502 400.233L638.512 400.241L638.522 400.249C646.266 406.726 654.44 411.019 663.043 413.09C671.617 415.153 682.11 415.536 694.487 414.283L695.518 414.178V411.169L694.757 410.898C686.13 407.818 678.603 403.899 672.166 399.149C665.705 394.383 659.383 388.453 653.203 381.349C647.163 374.227 640.727 365.78 633.896 356.004C627.332 346.239 619.574 334.982 610.622 322.234L685.701 247.426H620.894L648.119 262.829ZM867.126 262.577V397.97L885.809 411.976H825.089L843.772 397.97V273.082L750.357 411.976H708.32L727.003 397.97V262.577L708.32 248.571H769.04L750.357 262.577V387.465L843.772 248.571H885.809L867.126 262.577ZM751.503 383.709L843.162 247.426H889.246L868.272 263.15V397.397L889.246 413.121H821.652L842.626 397.397V276.838L750.967 413.121H704.883L725.858 397.397V263.15L704.883 247.426H772.477L751.503 263.15V383.709Z" fill="#606060"/>
</svg>
