<svg width="505" height="99" viewBox="0 0 505 99" fill="none" xmlns="http://www.w3.org/2000/svg">
<path d="M4.37037 151.081C3.0723 141.79 2.82788 132.433 3.73777 123.071C4.21774 118.374 4.99969 113.86 6.88548 109.279C8.52277 105.222 10.4613 101.193 12.7013 97.2246C17.2308 89.1646 23.4692 81.6182 29.3052 73.8896C34.792 66.6229 40.5804 59.4468 47.2233 52.5429C54.8152 44.6527 63.6135 37.1865 74.0219 30.5718C73.4196 30.5746 72.8174 30.5774 72.2653 30.58C73.6238 31.31 74.9321 32.0403 76.2905 32.7397C77.2465 33.2568 77.9006 33.622 78.2053 34.3876C78.5102 35.1839 78.6146 36.0426 78.769 36.8703C79.3331 39.445 79.7968 42.0202 80.1601 44.5958C80.8362 49.6553 81.1611 54.7471 81.0343 59.841C80.7818 70.2743 80.7302 80.7067 80.3273 91.1713C79.5709 111.916 77.4593 132.637 72.5363 153.187C71.2569 158.654 69.6252 163.909 66.3369 169.079C64.9917 171.202 64.4001 173.475 62.4518 175.417C60.5035 177.359 57.5993 178.815 54.3923 179.904C54.9448 179.993 55.5475 180.083 56.1 180.172C53.6806 177.944 51.2109 175.715 48.7915 173.487C46.1704 171.075 45.7051 168.162 44.7886 165.344C42.9565 159.921 40.6727 154.501 39.3924 149.015C36.9846 138.533 36.9349 127.886 38.4918 117.355C39.2702 112.074 40.3999 106.791 41.9313 101.568C42.672 98.9564 43.5635 96.4055 44.1535 93.7948C44.6943 91.3683 45.5362 88.9404 46.5791 86.573C48.7151 81.8379 52.5596 77.5551 55.0475 72.9411C57.4858 68.45 61.1297 64.1988 65.7796 60.4031C66.9796 59.4464 68.3807 58.55 69.5808 57.5933C70.5808 56.7909 71.2287 55.806 72.0777 54.9122C73.8757 53.0322 76.0761 51.3344 78.5783 49.7886C81.1309 48.2732 83.9855 46.9712 87.0923 45.9135C89.9986 44.9181 91.7467 43.0997 94.9045 42.2258C98.2127 41.3206 101.927 41.3953 105.343 42.0237C108.809 42.6825 110.723 44.2384 112.438 46.1021C115.516 49.4628 117.039 53.3524 118.211 57.1209C119.639 61.8087 119.56 66.5035 119.683 71.2587C119.746 73.9892 119.859 76.7194 119.922 79.4499C119.985 82.1803 119.545 84.8825 119.207 87.6148C117.753 98.6367 116.499 109.658 113.89 120.623C111.381 131.313 108.118 141.914 104.051 152.426C102.068 157.59 99.7829 162.694 97.4479 167.798C95.4603 172.072 93.8749 176.498 90.4805 180.441C88.7832 182.413 86.6333 184.172 83.9304 185.718C84.5831 185.777 85.2357 185.804 85.8884 185.863C81.2021 181.835 78.7714 177.213 78.8988 172.242C79.0741 166.779 80.3027 161.189 81.281 155.723C83.2848 144.177 86.092 132.689 89.7025 121.289C91.4834 115.727 93.6157 110.194 95.2458 104.602C96.8765 99.133 98.7081 93.6936 100.791 88.2837C104.906 77.4642 109.925 66.7939 115.798 56.273C117.391 53.4735 118.984 50.6739 120.427 47.8444C121.67 45.384 123.315 43.0137 125.312 40.7952C129.407 36.2965 135.06 32.4348 141.771 29.3659C141.369 29.3677 140.918 29.3698 140.516 29.3717C145.846 31.4639 150.426 34.204 153.303 37.6577C156.129 41.1117 157.051 45.0041 156.718 48.841C156.527 51.1124 155.433 53.2959 155.143 55.5371C154.948 56.8267 155.306 58.2365 155.412 59.4939C155.52 61.0276 155.577 62.5614 155.634 64.0646C155.862 69.7705 155.938 75.4465 155.814 81.154C155.567 92.6305 154.818 104.171 152.863 115.594C150.909 127.048 148.102 138.444 144.792 149.781C143.853 152.946 142.915 156.141 141.875 159.306C140.985 162.133 140.697 165.019 139.757 167.815C137.875 173.224 134.134 178.274 128.886 182.778C129.337 182.653 129.838 182.528 130.289 182.434C128.331 182.136 126.372 181.839 124.413 181.51C124.715 181.693 125.017 181.876 125.269 182.028C123.989 176.726 122.71 171.516 122.534 166.116C122.41 160.931 122.787 155.744 123.465 150.556C124.144 145.306 124.822 140.025 126.403 134.833C128.084 129.332 129.765 123.832 131.446 118.332C132.286 115.628 133.077 112.925 133.917 110.221C134.758 107.486 135.85 104.934 137.193 102.289C139.828 97.0916 142.464 91.8632 145.1 86.6655C146.443 84.0513 147.735 81.4679 149.078 78.8536C150.471 76.1163 151.612 73.3496 153.758 70.7929C157.801 65.9262 161.844 61.0594 165.886 56.2234C167.933 53.7899 169.929 51.3567 171.975 48.9232C173.572 46.9827 175.32 45.0722 177.721 43.4655C179.773 42.0752 182.277 40.9283 185.084 40.2095C186.387 39.8659 187.842 39.6443 189.246 39.4844C190.852 39.3235 192.508 39.4385 194.064 39.3085C195.92 39.1464 197.273 38.6798 199.232 39.0389C200.839 39.3382 202.298 40.1598 203.756 40.6746C206.37 41.5829 207.632 43.1112 207.49 44.9528C207.445 45.9655 207.048 46.9799 206.5 47.9336C205.853 49.1026 206.21 50.2055 206.316 51.4323C206.579 54.0391 206.692 56.6466 206.654 59.2855C206.653 69.9017 204.946 80.4952 202.736 90.999C200.478 101.687 198.018 112.376 195.559 123.065C193.05 133.969 190.34 144.874 187.229 155.75C185.698 161.096 184.218 166.442 182.586 171.788C181.796 174.4 180.804 176.982 179.611 179.504C179.114 180.549 178.466 181.503 178.521 182.608C178.576 183.559 178.43 184.51 177.832 185.372C176.685 187.065 174.129 187.783 171.37 188.133C171.873 188.315 172.426 188.497 172.928 188.648C167.701 176.184 166.185 163.243 168.584 150.437C169.171 147.151 170.411 143.924 171.048 140.669C171.686 137.413 172.072 134.098 172.659 130.843C173.833 124.271 175.107 117.699 176.582 111.157C179.483 98.3179 182.937 85.5378 186.993 72.8163C190.95 60.4634 195.561 48.2608 202.632 36.415C204.674 32.9997 206.867 29.6451 209.21 26.3204C210.307 24.7505 211.454 23.211 212.601 21.6408C213.648 20.2245 215.097 18.8063 215.944 17.3296C216.69 16.0068 217.035 14.5938 217.882 13.2705C218.729 11.9165 219.727 10.6232 220.976 9.4207C223.573 6.83123 226.976 4.63688 230.933 2.83883C230.38 2.74936 229.777 2.66012 229.225 2.57065C239.21 12.7414 244.984 24.067 246.093 35.844C246.409 39.0949 247.328 42.3123 247.945 45.5618C248.562 48.7499 249.029 51.9694 249.446 55.1891C250.229 61.8129 250.561 68.4388 250.391 75.0671C250.101 88.1086 247.954 101.251 245.103 114.181C242.252 126.928 238.296 139.588 233.185 152.069C232.49 153.79 231.745 155.512 231 157.203C230.405 158.587 230.311 160.029 229.866 161.443C229.075 164.024 227.732 166.576 225.685 168.918C221.741 173.447 215.383 176.729 207.814 178.881C208.367 178.971 208.969 179.06 209.522 179.149C204.736 175.214 201.502 170.688 200.727 165.782C200.364 163.329 200.553 160.843 201.194 158.416C201.539 157.126 202.035 155.835 202.581 154.574C203.177 153.221 203.373 152.024 203.466 150.612C204.565 138.61 205.964 126.607 207.665 114.632C209.268 103.334 212.429 92.2117 217.346 81.2658C219.73 75.9159 222.516 70.6254 225.704 65.3945C227.397 62.6252 229.191 59.8554 231.035 57.116C232.531 54.9305 233.474 52.717 234.718 50.4713C240.193 40.5967 250.543 32.2334 264.669 26.3684C264.167 26.3401 263.665 26.2811 263.163 26.2527C268.496 29.112 272.878 32.5587 275.607 36.5961C277.022 38.6452 277.986 40.7885 278.598 42.9641C279.312 45.4461 280.779 47.8325 281.644 50.2831C283.475 55.5212 283.952 60.9192 283.174 66.2616C282.785 69.0248 281.995 71.7593 280.954 74.4642C279.912 77.1998 279.625 80.116 279.036 82.9109C276.628 93.9679 273.969 105.026 271.11 116.054C268.25 127.052 264.838 137.991 262.129 148.958C259.173 160.723 254.107 172.283 247.183 183.392C247.936 183.327 248.688 183.262 249.491 183.197C244.703 178.954 242.271 174.118 242.749 168.93C242.987 166.076 244.229 163.37 245.621 160.633C246.218 159.433 246.061 158.145 246.156 156.887C246.249 155.291 246.342 153.695 246.485 152.068C247.381 139.852 249.031 127.664 251.383 115.533C253.687 103.617 256.492 91.73 261.004 80.0188C263.186 74.3324 265.719 68.6749 268.604 63.0772C270.046 60.217 271.589 57.387 273.232 54.5872C273.879 53.4796 274.727 52.3711 274.973 51.204C275.218 49.9448 275.513 48.6855 275.959 47.4561C277.444 43.0922 280.336 38.8445 285.49 35.6295C290.494 32.4765 297.111 30.7274 304.083 29.8357C303.631 29.7151 303.128 29.5947 302.676 29.5048C311.045 37.5353 315.956 46.6251 316.602 56.1644C316.764 58.5262 316.675 60.8892 316.385 63.2531C316.046 65.9241 316.46 68.6529 316.523 71.322C316.649 76.9057 316.625 82.4593 316.35 88.0142C315.898 98.9086 315.147 109.927 312.136 120.711C309.323 131.033 305.054 141.179 299.479 151.084C297.936 153.792 295.69 156.533 294.8 159.36C294.058 161.634 292.914 163.879 291.268 165.973C287.975 170.131 282.821 173.438 276.358 175.831C276.91 175.92 277.513 176.009 278.065 176.099C273.526 171.364 272.347 166.031 274.781 160.711C275.328 159.573 275.675 158.59 275.77 157.393C275.913 155.889 276.057 154.415 276.251 152.911C276.588 150.025 277.027 147.139 277.465 144.253C279.318 132.769 282.226 121.372 286.038 110.063C289.9 98.6618 294.213 87.2891 298.325 75.8866C299.366 72.9976 300.407 70.1392 301.447 67.2502C302.389 64.6685 303.681 61.993 304.221 59.3518C305.103 54.776 306.186 50.3526 308.575 45.9539C313.601 36.7256 323.2 28.8567 335.871 22.9986C335.469 23.0004 335.017 23.0025 334.616 23.0044C336.275 23.5797 337.934 24.1242 339.542 24.6997C341.251 25.2747 344.115 25.8749 345.224 26.913C346.282 27.8592 346.841 29.2373 347.498 30.3388C348.207 31.5321 348.815 32.7566 349.373 34.012C351.452 38.7274 351.575 43.4213 352.099 48.2667C353.099 58.1419 352.392 68.0864 350.581 77.9133C348.771 87.8322 345.755 97.6954 342.187 107.438C338.668 117.028 335.15 126.648 330.576 136.089C325.904 145.714 320.885 156.415 308.672 163.591C309.376 163.772 310.079 163.952 310.833 164.133C313.59 142.059 317.452 119.98 323.925 98.1655C327.187 87.2579 331.101 76.4393 336.07 65.8C338.704 60.2034 341.338 54.5762 343.972 48.9797C345.314 46.1199 346.655 43.2602 347.997 40.4311C348.991 38.2787 348.88 36.0087 349.572 33.7963C350.809 29.8631 353.35 26.0159 357.904 23.0492C362.457 20.1131 368.522 18.4586 374.892 17.6311C374.44 17.5105 373.938 17.3901 373.486 17.3002C380.552 25.889 385.463 35.0709 387.917 44.5711C389.194 49.4743 389.769 54.4116 389.792 59.3821C389.817 64.598 391.096 69.8388 391.271 75.0847C391.446 80.2386 391.169 85.4252 390.39 90.5528C389.611 95.8032 388.13 100.996 386.849 106.218C384.633 115.371 381.514 124.468 376.837 133.296C371.514 143.384 363.981 153.023 353.833 161.662C354.636 161.781 355.39 161.9 356.193 162.05C355.388 150.701 357.343 139.585 361.307 128.49C363.239 123.05 364.066 117.431 365.546 111.932C367.075 106.31 368.756 100.718 370.536 95.1559C374.148 83.9705 377.91 72.7231 383.329 61.8055C386.114 56.2389 388.849 50.7033 391.633 45.1367C392.975 42.3997 394.368 39.6624 395.71 36.9561C396.804 34.7725 397.145 32.5311 398.038 30.3178C400.618 23.9237 406.764 18.0653 418.457 17.7346C420.564 17.6634 424.779 17.4903 426.539 18.2799C427.797 18.8263 428.908 20.4166 429.715 21.2413C430.774 22.3102 431.733 23.3797 432.641 24.48C436.124 28.79 438.405 33.5045 439.331 38.2867C440.307 43.222 439.176 48.1058 439.299 53.0452C439.426 58.7822 439.353 64.5202 439.078 70.2592C438.58 81.7368 437.077 93.1271 435.273 104.549C433.52 115.972 432.118 127.361 429.862 138.755C428.734 144.406 427.054 150.06 426.529 155.769C426.002 161.141 424.521 166.456 421.985 171.592C420.692 174.175 419.198 176.698 417.453 179.192C418.257 179.31 419.01 179.43 419.814 179.579C418.449 166.76 420.045 153.866 422.596 141.121C425.147 128.499 429.053 115.992 433.813 103.605C438.524 91.3714 444.139 79.2256 450.206 67.2004C456.223 55.3288 462.241 43.4572 469.062 31.7659C472.796 25.3972 476.983 19.1797 481.27 12.9312C484.411 8.43683 488.05 3.11175 496.324 1.50832C495.821 1.32657 495.268 1.14506 494.765 0.99399C500.545 13.3935 502.162 26.6409 501.219 39.5013C500.231 53.62 495.026 67.4821 488.815 81.0422C485.188 88.9445 481.21 96.7565 477.332 104.629C476.884 105.583 479.295 105.97 479.743 105.017C486.703 90.8091 494.165 76.6909 498.966 62.1556C503.37 48.8802 504.964 35.4337 503.195 21.9416C502.257 14.7355 500.417 7.53371 497.173 0.583883C496.97 0.185953 496.266 -0.0562238 495.614 0.0695489C488.745 1.39028 484.546 4.96906 481.552 8.78768C477.71 13.6535 474.421 18.7315 471.233 23.7476C463.66 35.7185 457.444 47.9592 451.127 60.1697C438.343 84.8982 427.118 110.018 421.165 135.697C417.82 150.195 415.63 164.933 417.204 179.561C417.257 180.236 419.016 180.688 419.565 179.949C423.055 174.993 425.741 169.825 427.322 164.51C428.063 161.99 428.603 159.441 428.893 156.893C429.28 153.823 429.768 150.783 430.456 147.712C433.061 135.887 435.214 124.033 436.814 112.152C438.415 100.301 440.368 88.4787 441.216 76.6005C441.64 70.6768 441.813 64.7542 441.835 58.8017C441.821 55.8255 441.406 52.7592 441.743 49.7814C442.032 47.2027 442.422 44.6542 442.259 42.047C441.986 37.3231 440.559 32.6046 437.878 28.1682C436.563 25.9651 434.947 23.8249 433.08 21.7779C432.172 20.7696 431.164 19.7618 430.105 18.7848C429.299 18.0215 428.591 17.043 427.135 16.743C424.673 16.1715 421.26 16.1874 418.701 16.2607C416.242 16.3029 413.733 16.56 411.427 17.0617C406.965 18.0644 403.36 19.9222 400.761 22.3276C397.363 25.4117 395.674 29.1322 394.637 32.7882C393.058 38.564 389.521 44.1954 386.736 49.7926C383.902 55.5435 380.767 61.2651 378.134 67.0458C375.601 72.7339 373.671 78.5419 371.64 84.289C367.579 95.906 364.02 107.582 361.063 119.317C360.324 122.266 359.886 125.275 358.846 128.194C357.855 130.991 356.864 133.757 356.125 136.553C354.645 142.113 353.768 147.732 353.543 153.348C353.406 156.294 353.47 159.209 353.684 162.153C353.738 162.951 355.295 163.128 356.045 162.541C374.341 146.93 383.59 128.386 388.521 109.646C391.234 99.3855 393.746 89.1872 393.798 78.7855C393.823 73.3852 393.346 67.9873 392.417 62.6528C391.954 60.1697 392.293 57.5908 392.131 55.1062C391.919 52.5606 391.606 50.0154 391.092 47.4711C388.884 36.7118 383.616 26.335 375.641 16.6764C375.388 16.3708 374.735 16.2511 374.234 16.3455C362.898 17.8405 353.783 22.0252 349.448 28.7035C346.757 32.8276 346.978 37.2142 344.99 41.3963C342.257 47.2081 339.524 53.0199 336.791 58.8316C331.523 70.0247 326.757 81.1848 323.096 92.6158C319.585 103.678 316.776 114.829 314.419 126.008C311.768 138.754 309.82 151.558 308.224 164.36C308.127 165.066 309.634 165.335 310.385 164.902C321.196 158.531 326.223 149.64 330.7 141.12C335.874 131.278 339.692 121.196 343.409 111.145C350.843 91.0749 356.419 70.5835 354.667 49.9423C354.189 44.5137 354.014 39.145 351.731 33.8476C350.615 31.3368 349.397 28.397 347.128 26.137C346.169 25.1597 343.959 24.7404 342.351 24.1956C340.139 23.4389 337.977 22.6819 335.765 21.9558C335.414 21.8348 334.861 21.8067 334.511 21.9617C323.242 27.1383 314.189 33.808 308.605 41.7502C305.813 45.752 303.876 49.9338 302.691 54.2043C302 56.7235 301.761 59.2406 300.869 61.73C299.779 64.7113 298.739 67.6924 297.649 70.643C289.275 93.9396 279.798 117.149 275.492 140.887C274.855 144.265 274.369 147.642 273.883 151.02C273.64 152.708 273.447 154.397 273.304 156.116C273.112 157.835 272.717 159.371 271.972 161.062C269.69 166.595 271.071 172.173 275.761 177.091C276.114 177.458 276.918 177.577 277.469 177.359C282.93 175.34 287.635 172.648 291.083 169.349C292.781 167.715 294.128 165.96 295.174 164.145C296.468 161.929 297.01 159.595 298.355 157.41C304.681 147.256 309.551 136.801 312.964 126.169C316.426 115.229 317.73 104.208 318.431 93.0978C318.806 87.3277 318.979 81.5586 318.902 75.7906C318.889 72.8451 318.825 69.8999 318.66 66.9858C318.548 64.409 318.938 61.8298 318.976 59.2523C319.126 48.4513 314.109 38.0426 304.631 28.9434C304.328 28.638 303.776 28.5178 303.224 28.6124C290.584 30.2055 280.618 34.8851 275.784 42.2715C274.439 44.3029 273.545 46.4241 272.953 48.5747C272.657 49.65 272.562 50.7857 272.115 51.8616C271.47 53.4602 270.273 55.0612 269.427 56.63C266.192 62.3521 263.308 68.1646 260.826 74.0059C255.712 85.9039 252.456 97.9467 249.852 110.109C247.201 122.732 245.253 135.413 244.158 148.121C243.823 151.712 243.84 155.333 243.405 158.925C243.162 160.705 241.966 162.399 241.322 164.15C240.776 165.564 240.431 166.977 240.237 168.42C239.461 174.07 241.996 179.55 247.237 184.189C247.892 184.769 249.146 184.61 249.545 183.994C255.871 173.87 260.641 163.385 263.652 152.694C266.812 141.48 269.921 130.266 272.88 119.053C275.839 107.717 278.597 96.3826 281.103 85.0184C281.743 82.2233 282.282 79.4593 282.921 76.6642C283.561 73.9304 284.753 71.2555 285.292 68.4915C286.322 63.3014 286.197 58.0552 284.868 52.9067C284.051 49.8423 282.431 46.9656 281.263 43.9642C280.348 41.5139 279.735 39.0928 278.168 36.7375C275.286 32.3327 270.651 28.519 264.865 25.4163C264.463 25.2034 263.81 25.1144 263.359 25.3006C251.037 30.4515 241.182 37.4317 235.148 45.8056C233.652 47.8683 232.407 49.9912 231.313 52.1441C229.971 54.8198 228.276 57.3436 226.532 59.9598C222.993 65.2844 219.857 70.7299 217.172 76.2346C211.753 87.1829 207.54 98.6166 205.786 110.008C203.937 122.382 202.389 134.785 201.192 147.186C201.049 148.905 200.957 150.654 200.714 152.374C200.471 154.001 199.475 155.601 198.93 157.23C198.089 159.903 197.7 162.605 198.014 165.304C198.592 170.732 201.928 175.81 207.218 180.142C207.671 180.508 208.274 180.597 208.925 180.41C215.492 178.569 221.251 175.873 225.399 172.233C229.748 168.408 231.785 163.98 232.818 159.404C233.555 156.087 235.447 152.795 236.736 149.536C237.976 146.37 239.166 143.235 240.255 140.039C242.534 133.524 244.46 126.948 246.086 120.344C252.687 93.7728 255.272 66.852 249.125 40.1868C248.356 36.7232 248.239 33.226 247.47 29.7624C246.752 26.5441 245.684 23.3887 244.264 20.2657C241.323 13.8975 236.878 7.84304 231.281 2.19286C230.978 1.85677 230.124 1.67666 229.573 1.92469C223.112 4.83901 218.212 8.66653 215.373 13.2822C214.625 14.4516 214.179 15.681 213.633 16.8802C212.887 18.4791 211.339 20.0205 210.192 21.5293C208.147 24.2696 206.202 27.0094 204.358 29.7795C196.433 41.4759 190.819 53.7752 186.611 66.3747C182.206 79.5581 178.404 92.8308 175.254 106.131C172.153 119.37 170.409 132.725 167.058 145.934C163.411 160.372 164.584 175.063 170.472 189.211C170.624 189.64 171.378 189.821 172.03 189.726C177.497 189.056 180.849 186.77 181.034 183.332C181.172 180.601 183.117 177.861 184.058 175.187C185.099 172.39 185.688 169.565 186.578 166.738C190.088 155.308 193.146 143.818 195.953 132.299C198.661 120.995 201.167 109.661 203.674 98.3278C206.182 87.2396 208.439 76.122 209.039 64.92C209.176 62.0965 209.213 59.2736 209.15 56.4511C209.093 55.1013 209.037 53.7515 208.93 52.402C208.823 50.8683 208.465 49.4586 209.161 47.9826C210.751 44.6614 210.083 41.3815 205.005 39.4722C202.19 38.4114 199.926 37.2561 196.414 37.5179C194.859 37.6479 193.354 37.8697 191.799 37.9076C190.343 37.9451 188.838 38.0749 187.384 38.2964C181.516 39.1523 176.809 41.5368 173.36 44.4984C170.961 46.596 169.215 48.9667 167.319 51.2461C165.122 53.8644 162.976 56.4517 160.78 59.07C158.684 61.5958 156.588 64.1215 154.492 66.6166C152.396 69.1424 150.199 71.5459 148.856 74.2215C146.021 79.819 143.187 85.4165 140.352 91.014C138.91 93.8128 137.517 96.6114 136.075 99.4103C134.683 102.209 132.989 104.978 132.099 107.867C130.369 113.551 128.639 119.266 126.859 124.951C125.179 130.481 123.347 135.982 122.319 141.571C121.341 147.099 120.514 152.625 120.138 158.181C119.761 163.398 119.536 168.8 120.664 173.98C121.279 176.83 122.046 179.68 122.761 182.53C122.813 182.776 123.265 182.988 123.617 183.048C125.576 183.346 127.535 183.643 129.493 183.972C130.096 184.061 130.597 183.905 130.897 183.628C135.496 179.648 139.039 175.213 141.125 170.509C142.118 168.203 142.809 165.868 143.2 163.504C143.688 160.464 144.878 157.421 145.817 154.41C149.327 142.856 152.183 131.214 154.488 119.544C156.792 107.751 157.74 95.8114 158.136 83.9353C158.309 77.9207 158.331 71.9375 158.102 65.9248C157.987 62.857 157.722 59.8207 157.658 56.7527C157.597 54.4211 158.79 52.053 159.081 49.7197C159.613 45.4524 158.739 41.0995 155.66 37.2172C152.63 33.3653 147.547 30.3207 141.715 28.0468C141.363 27.9257 140.76 27.8978 140.46 28.0526C134.7 30.6875 129.596 33.841 125.598 37.5109C121.4 41.3658 119.161 45.457 116.822 49.8249C113.887 55.3001 110.649 60.6847 107.865 66.1899C105.08 71.7871 102.497 77.4141 100.214 83.0704C97.882 88.7575 95.851 94.474 94.0207 100.189C92.1905 105.936 90.2598 111.652 88.3793 117.367C84.5686 128.891 81.5613 140.503 79.3572 152.173C78.1825 158.56 76.9078 165.04 76.3859 171.486C75.9597 176.95 78.4936 182.215 83.6837 186.64C84.1373 187.037 85.0412 187.155 85.6418 186.784C90.9978 183.753 94.1411 179.78 96.3298 175.566C98.8669 170.737 100.952 165.757 103.087 160.868C107.854 149.862 111.666 138.706 114.625 127.462C116.105 121.933 117.384 116.373 118.462 110.814C119.589 105.01 120.114 99.1473 120.89 93.3446C121.278 90.428 121.666 87.5113 122.053 84.5639C122.442 81.7086 122.378 78.9475 122.265 76.0945C122.151 73.1802 122.087 70.235 121.973 67.3207C121.911 64.8663 122 62.4113 121.386 59.9596C120.414 56.006 119.191 52.023 116.765 48.291C115.653 46.5473 114.239 44.8357 112.375 43.3409C110.36 41.7548 108.349 40.9358 105.185 40.3982C98.856 39.3539 92.7382 40.4563 88.1339 43.2699C85.5815 44.816 82.3238 45.7824 79.5197 47.1762C76.8157 48.5081 74.4141 50.0842 72.3642 51.7813C69.9644 53.7562 68.3687 55.9728 65.8179 57.8563C63.367 59.6473 61.1176 61.5908 59.1696 63.5943C54.9238 67.9404 52.7879 72.7061 49.3964 77.263C45.9549 81.8815 43.4682 86.7409 42.0861 91.718C40.6057 97.125 38.9244 102.502 37.695 107.939C35.1864 118.874 34.134 129.955 35.4401 140.964C36.1184 146.514 37.5991 151.908 39.4312 157.33C40.3978 160.118 41.3142 162.905 42.2808 165.693C43.1967 168.389 43.5119 171.394 46.032 173.684C48.6531 176.095 51.274 178.476 53.895 180.888C54.2983 181.254 55.0015 181.374 55.6027 181.156C60.764 179.414 64.7668 176.787 66.6578 173.311C67.1552 172.358 67.4518 171.375 68.0496 170.421C68.7967 169.19 69.5939 167.959 70.2908 166.728C71.5845 164.329 72.6772 161.869 73.4686 159.38C75.1511 154.248 76.1303 148.997 77.1601 143.807C78.2393 138.463 79.0674 133.09 79.7451 127.748C81.1502 116.941 82.1537 106.136 82.6051 95.3029C83.106 84.3468 82.8039 73.3945 83.3552 62.4689C83.6786 56.4843 83.3998 50.5025 82.569 44.5539C82.1537 41.6103 81.6381 38.6672 80.9217 35.725C80.6652 34.5295 80.8096 33.2095 79.3 32.3574C77.5389 31.3838 75.7275 30.4104 73.9665 29.4675C73.4634 29.1937 72.7104 29.1665 72.21 29.4757C53.4446 41.3454 40.3129 55.8889 28.8888 70.7006C23.0521 78.2757 16.8136 85.7914 12.0323 93.6685C7.15139 101.73 2.82459 110.219 1.66004 118.785C0.204525 129.53 0.305112 140.33 1.76033 151.032C1.96595 152.074 4.47532 152.062 4.37037 151.081Z" fill="white"/>
</svg>
