<?xml version="1.0" encoding="utf-8"?>
<!-- Generator: Adobe Illustrator 27.5.0, SVG Export Plug-In . SVG Version: 6.00 Build 0)  -->
<svg version="1.2" baseProfile="tiny" id="Слой_1"
	 xmlns="http://www.w3.org/2000/svg" xmlns:xlink="http://www.w3.org/1999/xlink" x="0px" y="0px" viewBox="0 0 1366 768"
	 overflow="visible" xml:space="preserve">
<g>
	<path d="M1245.7,735.7c-33.3,0-66.7,0-100,0c-0.9-4.6-0.8-9.3-0.8-14c0-78.6,0-157.3,0-235.9c0-2.8-0.3-5.7-0.5-8.5
		c-0.1-2.1-1.3-3-3.4-2.9c-10.1,0.5-20.2-0.6-30.3-0.6c-6.4,0-6.5,0-6.5,6.3c0,85.2,0,170.3,0,255.5c-41.3,0-82.5,0-123.8,0
		c0.9-2,0.7-4.1,0.7-6.2c0-110.5,0-220.9,0-331.4c0-119.2,0-238.4,0-357.6c0-6,0.2-6.2,5.9-6.2c83.2,0,166.5,0,249.7,0
		c16,0,31.5,11.1,31.4,31.3c-0.3,213.2-0.2,426.3-0.1,639.5c0,13.4-6,22.5-18.1,27.8C1248.3,733.5,1246.7,734.1,1245.7,735.7z
		 M1104.2,254c0,33.1,0,66.3,0,99.4c0,1.2,0,2.5,0,3.7c0,2.3,1.1,3.4,3.4,3.4c11,0,22,0,33,0c2.2,0,3.4-1.1,3.5-3.4
		c0-1.6,0.1-3.2,0.1-4.8c0-48.7,0-97.3,0-146c0-17.7,0-35.5-0.1-53.2c0-4.9-0.7-5.5-5.6-5.5c-9.4,0-18.8,0-28.1,0
		c-6,0-6.2,0.1-6.2,6.3C1104.2,187.2,1104.2,220.6,1104.2,254z"/>
	<path d="M950,735.7c-40.5,0-81,0-121.5,0c-0.2-3.4-0.7-6.9-0.7-10.3c0-72.3,0-144.7,0-217c0-6.2-0.1-12.3-0.1-18.5
		c0-3-1.3-4.3-4.2-4.2c-6.2,0.1-12.3,0.1-18.5,0c-3.4-0.1-4.7,1.4-4.6,4.7c0.1,1.6,0,3.2,0,4.8c0,65.4,0.1,130.9-0.1,196.3
		c0,14.8,0.9,29.5-0.7,44.3c-40.5,0-81,0-121.5,0c-0.5-2.6-0.8-5.1-0.8-7.7c0-181.1,0-362.3,0-543.4c0-5.8,0.2-6,6-6
		c29.6,0,59.3,0,88.9,0c8.2,0,16.3,0.1,24.5,0c2.8,0,3.9,1,4.1,3.9c0.4,5-0.5,9.8-0.5,14.8c0.1,50.4,0,100.9,0.1,151.3
		c0,6.4,0.3,12.8,0.3,19.2c0,2.9,1.2,3.9,4,3.9c6.4-0.1,12.8,0,19.3,0c2.6,0,3.9-1.1,3.8-3.8c0-1.4,0-2.7,0-4.1
		c0-105.3,0-210.6,0-315.9c0-3,0.1-5.9,0-8.9c-0.2-3.6,1.4-4.8,4.9-4.7c6.2,0.1,12.3,0,18.5,0c31.4,0,62.7,0,94.1,0
		c5.2,0,6.3,1.3,5.9,6.4c-0.2,2.3-0.3,4.7-0.3,7c0,123.2,0,246.4,0,369.5c0,2.5,0,4.9,0,7.4c0.1,2.8-1.3,4-4.1,4
		c-2.1-0.1-4.2,0-6.3,0c-15.4,0-30.9,0-46.3,0c-4.4,0-4.9,0.5-4.9,4.9c0,3.1,0,6.2,0,9.2c0,4.6,0.5,5.1,5.1,5.1c16.7,0,33.3,0,50,0
		c6.4,0,6.5,0.1,6.5,6.4c0,89.9,0,179.8,0,269.7C950.8,727.9,950.8,731.8,950,735.7z"/>
	<path d="M96.3,717.2c0-221.5,0-442.9,0-664.4c1.7,2.1,2.4,0.9,2.8-0.9c0.8-3.3,2.4-6.2,4.8-8.6c6.4-6.4,14.3-9,23.1-9
		c70.6,0,141.3,0,211.9,0c6.1,0,6.3,0.2,6.3,6.2c0,33.4,0,66.8,0,100.2c0,6.6-0.3,6.8-6.9,6.8c-33.8,0-67.7,0-101.5,0
		c-3.1,0-6.2-0.1-9.3,0.1c-8.2,0.5-8.2,0.6-8.2,8.9c0,147.8,0,295.7,0,443.5c0,5.9,1.1,11.8,0.3,17.7c-0.3,2.5,1.4,3.1,3.5,3.2
		c5.1,0.2,10.1,0.5,15.2,0.5c68.1,0,136.1,0,204.2,0c14.8,0,29.6,0.1,44.4-0.5c5.1-0.2,5.7,0.8,5.7,5.8c0,33.8,0,67.6,0,101.4
		c0,2.4-1,4.9,0,7.3c-125.2,0-250.5,0-375.7,0c-0.1-1.9-1.3-2.8-3-3.3c-7-1.9-11.6-6.6-14.7-12.9C98.7,718.2,97.7,717.4,96.3,717.2z
		"/>
	<path d="M646.9,735.7c-40.5,0-81,0-121.5,0c-0.1-3.4-0.7-6.8-0.7-10.3c0-187.8,0-375.5,0-563.3c0-3.1,0-6.2,0-9.2
		c-0.1-4.6-0.6-5.2-5.1-5.2c-47.9,0.2-95.8-0.7-143.7,0.4c-5.1,0.1-6.1-0.8-6.1-5.9c0-33.5,0-67.1,0-100.6c0-7.2,0.1-7.2,7.5-7.2
		c138.4,0,276.9,0,415.3,0c1,0,2,0,3,0c4.5,0.1,5.5,1.3,5.2,6c-0.2,2.3-0.3,4.7-0.3,7c0,28.6,0,57.2,0,85.8c0,2.3,0.1,4.7,0.3,7
		c0.7,6.9,0.2,7.5-6.7,7.5c-45,0-89.9,0-134.9,0c-2.3,0-4.7,0.1-7,0c-2.7,0-3.8,1.2-3.7,3.9c0.1,4.9,0,9.9,0,14.8
		c0,186.7,0,373.3,0,560C648.4,729.5,648.1,732.7,646.9,735.7z"/>
	<path d="M249.7,382.1c0-65.7,0-131.4,0-197.1c0-6,0.3-6.3,6.2-6.3c76.9,0,153.9,0,230.8,0c5.8,0,6,0.2,6,6.1c0,33.9,0,67.8,0,101.7
		c0,5.5-0.5,6-5.9,6c-35.2,0-70.4,0-105.6,0c-7.9,0-7.9-0.1-7.9,7.7c0,6,0.1,12.1,0,18.1c-0.1,3.3,1.4,4.6,4.7,4.6
		c32.7-0.1,65.5,0,98.2-0.1c3.9,0,7.9-0.6,11.8-0.4c3.1,0.1,4.7,1.4,4.7,4.7c-0.1,34.9-0.1,69.8,0,104.7c0,4.2-2.3,4.4-5.5,4.4
		c-35,0-69.9,0-104.9,0c-9,0-9,0-9,8.8c0,7.4,0,14.8,0,22.2c0,4.9,0.4,5.3,5.3,5.3c35.6,0,71.1,0,106.7,0c1.4,0,2.7,0,4.1,0
		c2.1,0,3.2,1.1,3.2,3.2c0,1.1,0,2.2,0,3.3c0,33.4,0,66.8,0,100.2c0,6.3-0.1,6.5-6.4,6.5c-76.8,0-153.6,0-230.5,0
		c-5.7,0-6.2-0.5-6.2-6C249.7,513.7,249.7,447.9,249.7,382.1z"/>
</g>
</svg>
