<?xml version="1.0" encoding="utf-8"?>
<!-- Generator: Adobe Illustrator 27.5.0, SVG Export Plug-In . SVG Version: 6.00 Build 0)  -->
<svg version="1.1" id="Слой_1" xmlns="http://www.w3.org/2000/svg" xmlns:xlink="http://www.w3.org/1999/xlink" x="0px" y="0px"
	 viewBox="0 0 4074 2522.8" style="enable-background:new 0 0 4074 2522.8;" xml:space="preserve">
<style type="text/css">
	.st0{fill:#B8B8B8;}
</style>
<path class="st0" d="M770.9,384.6h60.3V0.6H711.1v328.1h-26.2V141H564.9v542.1h120.1V440h26.2v243.1h120.1V403.4h-60.3V384.6z"/>
<path class="st0" d="M149.3,141v110.7v29.7V392v35.1v68.7v42h236.2V427.1H269.3V392h116.1V281.3H269.3v-29.7h116.1V141H269.3H149.3z
	"/>
<path class="st0" d="M1110.8,0.6h-91.9h-39l-120.1,0v683h120.1V429.1h39v254h91.9c15.3,0,28.2-11.4,28.2-25.7V26.3
	C1138.5,12,1126.2,0.6,1110.8,0.6z M979.4,111.3h39v207.1h-39V111.3z"/>
<path class="st0" d="M120.1,111.3h121.6V0.6H57.3H28.2C12.4,0.6,0,12,0,26.3v631.1c0,14.3,12.4,25.7,28.2,25.7h357.3V572.4H120.1
	V111.3z"/>
<path class="st0" d="M685,0.6H265.9v110.7h150.7v571.8h120.1V111.3H685V0.6z"/>
<path class="st0" d="M2809.9,384.6h60.3V0.6h-120.1v328.1h-26.2V141h-120.1v542.1h120.1V440h26.2v243.1h120.1V403.4h-60.3V384.6z"/>
<path class="st0" d="M2188.2,141v110.7v29.7V392v35.1v68.7v42h236.2V427.1h-116.1V392h116.1V281.3h-116.1v-29.7h116.1V141h-116.1
	H2188.2z"/>
<path class="st0" d="M3149.8,0.6h-91.9h-39l-120.1,0v683h120.1V429.1h39v254h91.9c15.3,0,28.2-11.4,28.2-25.7V26.3
	C3177.5,12,3165.1,0.6,3149.8,0.6z M3018.4,111.3h39v207.1h-39V111.3z"/>
<path class="st0" d="M2159.1,111.3h121.6V0.6h-184.3h-29.2c-15.8,0-28.2,11.4-28.2,25.7v631.1c0,14.3,12.4,25.7,28.2,25.7h357.3
	V572.4h-265.4V111.3z"/>
<path class="st0" d="M2723.9,0.6h-419.1v110.7h150.7v571.8h120.1V111.3h148.3V0.6z"/>
<path class="st0" d="M1666.9,1706h60.3v-384h-120.1v328.1h-26.2v-187.8h-120.1v542.1h120.1v-243.1h26.2v243.1h120.1v-279.7h-60.3
	V1706z"/>
<path class="st0" d="M1045.2,1462.4v110.7v29.7v110.7v35.1v68.7v42h236.2v-110.7h-116.1v-35.1h116.1v-110.7h-116.1v-29.7h116.1
	v-110.7h-116.1H1045.2z"/>
<path class="st0" d="M2006.8,1322h-91.9h-39h-120.1v683h120.1v-254.5h39v254h91.9c15.3,0,28.2-11.4,28.2-25.7v-631.1
	C2034.5,1333.4,2022.2,1322,2006.8,1322z M1875.4,1432.7h39.1v207.1h-39.1V1432.7z"/>
<path class="st0" d="M1016.1,1432.7h121.6V1322H953.3h-29.2c-15.8,0-28.2,11.4-28.2,25.7v631.1c0,14.3,12.4,25.7,28.2,25.7h357.3
	v-110.7h-265.4V1432.7z"/>
<path class="st0" d="M1580.9,1322h-419.1v110.7h150.7v571.8h120.1v-571.8h148.3V1322z"/>
<path class="st0" d="M3705.9,1706h60.3v-384h-120.1v328.1h-26.2v-187.8h-120.1v542.1h120.1v-243.1h26.2v243.1h120.1v-279.7h-60.3
	V1706z"/>
<path class="st0" d="M3084.2,1462.4v110.7v29.7v110.7v35.1v68.7v42h236.2v-110.7h-116.1v-35.1h116.1v-110.7h-116.1v-29.7h116.1
	v-110.7h-116.1H3084.2z"/>
<path class="st0" d="M4045.8,1322h-91.9h-39h-120.1v683h120.1v-254.5h39v254h91.9c15.3,0,28.2-11.4,28.2-25.7v-631.1
	C4073.5,1333.4,4061.1,1322,4045.8,1322z M3914.4,1432.7h39v207.1h-39V1432.7z"/>
<path class="st0" d="M3055.1,1432.7h121.6V1322h-184.3h-29.2c-15.8,0-28.2,11.4-28.2,25.7v631.1c0,14.3,12.4,25.7,28.2,25.7h357.3
	v-110.7h-265.4V1432.7z"/>
<path class="st0" d="M3619.9,1322h-419.1v110.7h150.7v571.8h120.1v-571.8h148.3V1322z"/>
</svg>
