<?xml version="1.0" standalone="no"?>
<!DOCTYPE svg PUBLIC "-//W3C//DTD SVG 20010904//EN"
 "http://www.w3.org/TR/2001/REC-SVG-20010904/DTD/svg10.dtd">
<svg version="1.0" xmlns="http://www.w3.org/2000/svg"
 width="664.000000pt" height="664.000000pt" viewBox="0 0 664.000000 664.000000"
 preserveAspectRatio="xMidYMid meet">
<metadata>
Created by potrace 1.14, written by Peter Selinger 2001-2017
</metadata>
<g transform="translate(0.000000,664.000000) scale(0.100000,-0.100000)"
fill="#000000" stroke="none">
<path d="M2319 6633 c-2 -23 -11 -74 -19 -118 -5 -27 -12 -70 -15 -95 -3 -25
-7 -52 -10 -60 -2 -8 -7 -33 -10 -55 -3 -23 -8 -52 -10 -65 -3 -14 -7 -41 -10
-60 -2 -19 -7 -46 -9 -60 -3 -13 -8 -40 -11 -60 -3 -20 -8 -47 -10 -60 -3 -14
-7 -41 -10 -60 -3 -19 -7 -44 -9 -55 -2 -11 -7 -40 -11 -65 -4 -25 -9 -54 -11
-65 -2 -11 -6 -37 -9 -58 -3 -21 -7 -48 -10 -60 -8 -35 -16 -80 -19 -112 -2
-16 -9 -57 -14 -90 -6 -33 -13 -76 -16 -95 -3 -19 -7 -44 -10 -55 -2 -11 -7
-40 -11 -65 -4 -25 -9 -54 -11 -65 -2 -10 -6 -37 -9 -60 -7 -47 -11 -72 -31
-180 -8 -44 -17 -102 -20 -130 -3 -27 -10 -52 -14 -55 -5 -3 -285 -5 -624 -5
-542 0 -616 -2 -617 -15 0 -8 -2 -22 -4 -30 -1 -8 -8 -51 -15 -95 -6 -44 -13
-91 -16 -105 -2 -14 -6 -43 -9 -65 -3 -22 -7 -49 -9 -60 -6 -33 -16 -98 -20
-130 -3 -16 -9 -59 -15 -95 -9 -57 -16 -107 -26 -175 -11 -73 -19 -134 -19
-155 l-1 -25 608 0 608 0 -5 -37 c-3 -20 -14 -90 -25 -155 -11 -65 -22 -136
-25 -158 -4 -23 -9 -52 -12 -65 -3 -14 -7 -43 -9 -65 -3 -22 -9 -62 -15 -90
-6 -27 -13 -68 -15 -90 -3 -22 -7 -47 -10 -55 -2 -8 -7 -35 -11 -60 -3 -25 -8
-52 -9 -60 -2 -8 -4 -24 -4 -36 l-1 -21 -608 0 c-335 0 -614 -3 -620 -6 -5 -4
-13 -31 -17 -60 -4 -28 -9 -61 -11 -72 -2 -10 -6 -37 -9 -60 -3 -22 -8 -53
-11 -68 -3 -16 -7 -38 -8 -50 -6 -45 -18 -133 -22 -152 -3 -11 -6 -36 -9 -55
-2 -19 -9 -66 -15 -105 -6 -38 -13 -83 -16 -100 -2 -16 -6 -41 -9 -55 -6 -33
-18 -120 -19 -145 -1 -20 6 -20 603 -23 l603 -2 -6 -43 c-3 -23 -15 -96 -26
-162 -18 -110 -26 -157 -35 -225 -2 -14 -4 -25 -5 -25 -2 0 -8 -33 -15 -80 -3
-22 -7 -50 -9 -61 -2 -12 -7 -39 -11 -60 -3 -22 -8 -50 -10 -64 -2 -14 -13
-79 -24 -145 -11 -66 -22 -136 -26 -155 -3 -19 -8 -51 -11 -70 -2 -19 -6 -44
-8 -55 -4 -19 -9 -52 -21 -120 -3 -16 -8 -46 -11 -65 -2 -19 -9 -57 -14 -85
-5 -27 -12 -66 -14 -85 -3 -19 -8 -46 -10 -59 -3 -12 -8 -42 -10 -65 -3 -22
-8 -52 -11 -66 -3 -14 -8 -45 -11 -70 -3 -25 -7 -47 -9 -50 -2 -3 -6 -27 -9
-55 l-7 -50 495 0 c272 0 497 2 499 5 3 3 8 23 11 45 8 51 11 69 31 185 8 52
17 109 20 125 5 35 13 81 20 111 2 11 7 45 11 75 3 30 10 61 15 70 4 9 6 18 4
21 -3 3 4 53 15 113 11 59 23 129 26 154 6 46 9 65 19 111 3 14 7 45 10 70 3
25 7 52 10 60 2 8 7 31 9 50 4 33 13 91 21 135 2 11 6 31 9 45 3 14 8 41 11
60 2 19 7 46 9 60 3 14 7 43 11 65 5 39 14 91 21 130 3 11 7 36 9 55 3 19 7
44 9 55 3 11 8 41 12 67 l7 48 544 0 545 0 -6 -43 c-4 -24 -9 -55 -11 -68 -2
-13 -6 -42 -10 -64 -3 -22 -7 -47 -10 -55 -2 -8 -6 -37 -10 -64 -3 -27 -8 -52
-9 -55 -3 -5 -12 -56 -21 -128 -4 -31 -16 -103 -22 -128 -2 -11 -5 -31 -8 -45
-13 -85 -30 -189 -39 -235 -2 -11 -7 -42 -10 -68 -4 -27 -10 -59 -12 -70 -2
-12 -7 -38 -9 -57 -3 -19 -12 -71 -19 -115 -8 -44 -17 -98 -20 -120 -4 -22
-16 -94 -27 -160 -11 -66 -22 -133 -25 -150 -5 -32 -22 -133 -30 -175 -2 -14
-7 -45 -10 -70 l-5 -45 495 0 c272 0 497 3 500 5 2 3 7 25 10 50 4 25 9 56 11
70 13 71 17 98 21 128 1 18 5 41 8 50 3 9 8 35 11 57 3 23 8 52 10 65 3 14 8
45 11 70 3 25 8 53 10 62 6 19 9 40 19 103 3 22 10 65 15 95 10 61 21 127 35
215 3 22 9 54 12 70 3 17 7 39 8 50 2 11 10 61 18 110 9 50 19 113 23 140 3
28 8 52 9 55 2 3 6 24 10 47 3 23 8 55 10 70 2 15 6 39 9 53 2 14 10 59 16
100 7 41 14 84 16 95 7 36 24 140 24 148 0 4 277 7 615 7 338 0 615 3 616 8 0
4 2 16 4 27 2 11 7 40 11 65 4 25 8 50 10 55 1 6 5 26 8 45 4 19 13 71 21 115
8 44 17 96 20 115 9 59 24 143 30 175 3 17 8 43 10 58 2 15 7 47 10 70 4 23 8
44 10 47 2 3 6 29 10 59 4 30 11 65 16 77 5 15 4 26 -3 30 -6 4 -284 7 -618 7
l-607 0 13 71 c6 39 15 93 18 120 4 27 9 52 10 55 2 3 7 33 11 66 3 32 8 63
11 66 2 4 6 31 9 59 2 28 6 54 9 59 3 4 8 29 11 57 9 65 15 101 30 184 2 14 7
45 11 70 3 25 8 52 9 60 2 8 4 17 4 20 1 3 271 5 601 5 330 -1 605 2 610 5 5
3 11 21 14 40 3 19 8 47 11 63 8 41 14 76 25 142 5 33 12 71 15 85 3 14 8 41
11 60 2 19 9 58 14 85 17 91 30 167 35 200 1 11 10 63 20 115 9 52 17 108 18
125 l2 30 -595 1 c-327 1 -601 2 -608 3 -8 0 -11 8 -8 19 3 9 7 35 10 57 4 22
10 63 16 90 5 28 12 68 15 90 3 22 10 65 15 95 5 30 12 73 15 95 4 22 8 47 10
55 2 8 7 33 10 55 3 23 8 52 11 65 3 14 7 39 9 55 5 40 15 104 21 135 2 14 6
36 9 50 22 132 35 211 39 240 3 19 8 46 11 60 3 14 7 44 10 68 2 23 6 46 8 50
3 4 8 34 12 67 3 32 8 62 10 65 2 3 6 26 9 50 4 25 9 57 12 72 3 15 7 41 9 58
3 18 6 39 9 49 3 9 8 41 11 71 4 30 9 58 11 61 2 4 6 31 10 60 3 30 7 59 8 64
1 7 -172 11 -496 13 -330 1 -498 -1 -499 -8 -1 -5 -2 -13 -3 -17 -2 -9 -16
-96 -22 -133 -2 -14 -6 -36 -9 -50 -3 -14 -8 -41 -11 -60 -3 -19 -9 -60 -14
-90 -5 -30 -12 -71 -15 -90 -3 -19 -8 -46 -10 -60 -7 -38 -36 -221 -42 -255
-2 -16 -11 -68 -19 -115 -9 -47 -17 -100 -19 -119 -3 -19 -9 -57 -14 -85 -12
-59 -18 -91 -27 -155 -4 -25 -8 -55 -11 -66 -2 -11 -6 -33 -8 -50 -2 -16 -8
-48 -11 -70 -4 -22 -8 -47 -9 -55 -1 -8 -7 -42 -13 -75 -6 -33 -14 -78 -17
-100 -3 -23 -7 -50 -9 -62 -11 -55 -25 -146 -28 -180 -1 -6 -8 -13 -17 -15
-38 -9 -1076 -2 -1075 7 5 33 16 105 20 135 2 19 7 42 9 50 3 8 7 35 10 60 3
25 8 56 10 70 2 14 16 91 30 173 13 81 27 162 29 180 3 17 10 61 17 97 6 36
13 79 15 95 2 17 6 41 9 55 4 21 15 84 41 245 2 17 6 41 9 55 3 14 7 41 9 60
3 19 12 76 21 125 9 50 18 104 21 120 2 17 9 57 15 90 6 33 12 69 14 80 4 32
25 168 31 193 l4 22 -500 0 c-275 0 -500 -3 -501 -7z m1603 -2898 c-1 -22 -11
-92 -22 -155 -11 -63 -22 -133 -26 -155 -3 -22 -8 -49 -9 -60 -2 -11 -6 -33
-9 -50 -7 -37 -14 -78 -21 -130 -3 -22 -10 -62 -15 -90 -5 -27 -11 -63 -14
-80 -13 -85 -17 -111 -21 -121 -2 -8 -162 -11 -548 -11 l-544 0 8 36 c4 20 10
54 13 76 3 22 12 81 20 130 8 50 17 106 20 125 3 19 8 49 12 65 13 64 21 116
28 183 3 30 8 57 10 60 4 7 11 45 21 120 9 59 16 86 25 92 4 3 248 5 542 5
l533 -1 -3 -39z"/>
</g>
</svg>
